# xmcd
# 
# Track frame offsets:
#     182
#     13727
#     34405
#     48162
#     58270
#     78162
#     97495
#     114037
#     138267
#     160100
#     175015
#     188310
#     201620
#     217915
#     230415
# 
# Disc length: 3229
# 
# Revision: 4
# Processed by: cddbd v1.5.2PL0 Copyright (c) Steve Scherf et al.
# Submitted via: BonkEnc v1.0
# 
DISCID=c40c9b0f
DTITLE=Kool and The Gang - The Very Best Of [CD2]
DYEAR=1997
DGENRE=Funk
TTITLE0=Funky Stuff
TTITLE1=Hollywood Swinging
TTITLE2=Jungle Boogie
TTITLE3=Chocolate Buttermilk
TTITLE4=Open Sesame (Part 2)
TTITLE5=Good Times
TTITLE6=Give It Up
TTITLE7=This Is You, This Is Me
TTITLE8=Spirit Of The Boogie
TTITLE9=Rhyme Tyme People
TTITLE10=Kool and The Gang
TTITLE11=Let The Music Take Your Mind
TTITLE12=Raw Hamburger
TTITLE13=Kool It (Here Comes The Fuzz)
TTITLE14=The Gang's Back Again
EXTD=YEAR: 1997 ID3G: 5
EXTT0=
EXTT1=
EXTT2=
EXTT3=
EXTT4=
EXTT5=
EXTT6=
EXTT7=
EXTT8=
EXTT9=
EXTT10=
EXTT11=
EXTT12=
EXTT13=
EXTT14=
PLAYORDER=
